# xmcd CD database file
#
# Track frame offsets:
#	150
#	20452
#	40373
#	61741
#	84546
#	101623
#	123167
#	143962
#	162451
#	183648
#	203908
#	222462
#	241055
#	262885
#	287304
#	313432
#	337289
#
# Disc length: 4754 seconds
#
# Revision: 0
# Processed by: cddbd v1.5.2PL0 Copyright (c) Steve Scherf et al.
# Submitted via: CDex 1.70beta2
#
DISCID=00129011
DTITLE=Maelo Ruiz - Lo Nuevo Y Lo Mejor
DYEAR=2009
DGENRE=Salsa
TTITLE0=Regálame Una Noche
TTITLE1=Bésame
TTITLE2=Vivir Así
TTITLE3=No Te Vayas
TTITLE4=Deseo
TTITLE5=No Más Mentiras
TTITLE6=Soy Tuyo
TTITLE7=Cuando La Olvide Que
TTITLE8=Vete
TTITLE9=Dile A Tu Dueño
TTITLE10=Fuiste Mía
TTITLE11=Por Que Te Amo
TTITLE12=Te Va A Doler
TTITLE13=Te Necesito Mi Amor
TTITLE14=Mega Maelo Ruiz
TTITLE15=El Reloj Cucu
TTITLE16=Será Que Sí
EXTD=YEAR: 2009
EXTT0=
EXTT1=
EXTT2=
EXTT3=
EXTT4=
EXTT5=
EXTT6=
EXTT7=
EXTT8=
EXTT9=
EXTT10=
EXTT11=
EXTT12=
EXTT13=
EXTT14=
EXTT15=
EXTT16=
PLAYORDER=
